HIERARCHY
ROOT Hips
{
	OFFSET 0.000000 0.000000 0.000000
	CHANNELS 6 Xposition Yposition Zposition Zrotation Xrotation Yrotation
	JOINT RightUpLeg
	{
		OFFSET -10.795800 0.000000 0.000000
		CHANNELS 3 Zrotation Xrotation Yrotation
		JOINT RightLeg
		{
			OFFSET 0.000000 -39.557900 0.000000
			CHANNELS 3 Zrotation Xrotation Yrotation
			JOINT RightFoot
			{
				OFFSET 0.000000 -40.613400 0.000000
				CHANNELS 3 Zrotation Xrotation Yrotation
				JOINT RightToe
				{
					OFFSET 0.000000 -1.003500 12.392200
					CHANNELS 3 Zrotation Xrotation Yrotation
					JOINT RightToeEnd
					{
						OFFSET 0.000000 1.088300 5.767000
						CHANNELS 3 Zrotation Xrotation Yrotation
						End Site
						{
						    OFFSET 0.000000 0.927200 4.913300
						}
					}
				}
			}
		}
	}
	JOINT LeftUpLeg
	{
		OFFSET 10.795800 0.000000 0.000000
		CHANNELS 3 Zrotation Xrotation Yrotation
		JOINT LeftLeg
		{
			OFFSET 0.000000 -39.557900 0.000000
			CHANNELS 3 Zrotation Xrotation Yrotation
			JOINT LeftFoot
			{
				OFFSET 0.000000 -40.613400 0.000000
				CHANNELS 3 Zrotation Xrotation Yrotation
				JOINT LeftToe
				{
					OFFSET 0.000000 -1.003500 12.392200
					CHANNELS 3 Zrotation Xrotation Yrotation
					JOINT LeftToeEnd
					{
						OFFSET 0.000000 1.088300 5.767000
						CHANNELS 3 Zrotation Xrotation Yrotation
						End Site
						{
						    OFFSET 0.000000 0.927200 4.913300
						}
					}
				}
			}
		}
	}
	JOINT Spine
	{
		OFFSET 0.000000 15.108100 0.000000
		CHANNELS 3 Zrotation Xrotation Yrotation
		JOINT Spine1
		{
			OFFSET 0.000000 12.828000 0.000000
			CHANNELS 3 Zrotation Xrotation Yrotation
			JOINT Spine2
			{
				OFFSET 0.000000 11.155500 0.000000
				CHANNELS 3 Zrotation Xrotation Yrotation
				JOINT LeftShoulder
				{
					OFFSET 2.000000 11.155500 0.000000
					CHANNELS 3 Zrotation Xrotation Yrotation
					JOINT LeftArm
					{
						OFFSET 15.139800 0.000000 0.000000
						CHANNELS 3 Zrotation Xrotation Yrotation
						JOINT LeftForeArm
						{
							OFFSET 0.000000 -26.627300 0.000000
							CHANNELS 3 Zrotation Xrotation Yrotation
							JOINT LeftHand
							{
								OFFSET 0.000000 -24.932400 0.000000
								CHANNELS 3 Zrotation Xrotation Yrotation
								JOINT LeftFinger0
								{
									OFFSET 0.000000 -8.640100 0.000000
									CHANNELS 3 Zrotation Xrotation Yrotation
									End Site
									{
									    OFFSET 0.000000 -5.000000 0.000000
									}
								}
							}
						}
					}
				}
				JOINT RightShoulder
				{
					OFFSET -2.000000 11.155500 0.000000
					CHANNELS 3 Zrotation Xrotation Yrotation
					JOINT RightArm
					{
						OFFSET -15.139800 0.000000 0.000000
						CHANNELS 3 Zrotation Xrotation Yrotation
						JOINT RightForeArm
						{
							OFFSET 0.000000 -26.627300 0.000000
							CHANNELS 3 Zrotation Xrotation Yrotation
							JOINT RightHand
							{
								OFFSET 0.000000 -24.932400 0.000000
								CHANNELS 3 Zrotation Xrotation Yrotation
								JOINT RightFinger0
								{
									OFFSET 0.000000 -8.640100 0.000000
									CHANNELS 3 Zrotation Xrotation Yrotation
									End Site
									{
									    OFFSET 0.000000 -5.000000 0.000000
									}
								}
							}
						}
					}
				}
				JOINT Neck
				{
					OFFSET 0.000000 11.155500 0.000000
					CHANNELS 3 Zrotation Xrotation Yrotation
					JOINT Head
					{
						OFFSET 0.000000 10.940000 0.000000
						CHANNELS 3 Zrotation Xrotation Yrotation
						JOINT HeadTip
						{
							OFFSET 0.000000 10.000000 0.000000
							CHANNELS 3 Zrotation Xrotation Yrotation
							End Site
							{
							    OFFSET 0.000000 5.000000 0.000000
							}
						}
					}
				}
			}
		}
	}
}
MOTION
Frames:	9
Frame Time:	0.033332
124.573400 85.103500 127.690800 -4.524448 -4.842596 -61.507831 -2.511753 -6.031684 0.057953 -0.000000 42.365224 -0.000000 8.212550 -4.539374 -18.859728 -0.000000 -6.685526 -0.000000 0.000000 -0.000000 0.000000 6.966837 -5.692760 2.917499 0.000000 23.509473 -0.000000 -15.120524 5.020257 14.740887 0.000000 -7.099463 0.000000 -0.000000 0.000000 -0.000000 -4.457420 8.101207 2.223790 -0.000000 7.471427 -0.000000 -0.000000 -0.000000 -0.000000 -1.234206 0.000000 15.252156 42.918553 -9.205101 -40.315200 180.000037 -81.709107 -180.000037 -11.518753 23.960066 -62.693007 -0.000000 0.000000 -0.000000 -3.971192 -0.000000 -9.923942 -6.932958 -1.681525 24.544849 -0.000271 -60.688641 -0.000159 1.947480 -2.512408 12.098330 -0.000000 0.000000 -0.000000 -0.000000 -0.000000 -0.000000 6.935459 4.941651 -40.677574 -0.000000 -0.000000 -0.000000 
124.827200 85.839000 129.185300 -5.123903 -4.097464 -64.204566 -2.918946 -6.219673 -3.791590 -0.000000 41.331983 -0.000000 7.876480 -2.551226 -21.123290 -0.000000 -5.880125 -0.000000 -0.000000 0.000000 0.000000 6.493065 -3.013466 3.374499 -0.000000 20.584533 -0.000000 -14.738331 5.129951 17.230588 -0.000000 -7.197820 0.000000 0.000000 0.000000 -0.000000 -4.462262 7.447091 1.713899 -0.000000 7.622317 -0.000000 0.000000 0.000000 0.000000 0.587845 0.000000 12.177951 41.490805 -12.859138 -39.978066 -180.000037 -80.083980 180.000037 -7.617552 20.269312 -61.771970 0.000000 0.000000 -0.000000 -3.482190 -0.000000 -9.156268 -8.071638 -2.731617 25.829688 -0.000188 -51.038172 -0.000090 3.483047 -0.301951 5.875081 -0.000000 -0.000000 -0.000000 0.000000 0.000000 0.000000 7.763447 6.473291 -38.737608 -0.000000 0.000000 -0.000000 
125.136200 86.276500 130.413600 -5.054547 -3.415319 -66.503484 -3.503551 -6.931530 -7.799876 -0.000000 40.112739 -0.000000 8.677714 -2.213042 -20.919663 -0.000000 -5.377891 -0.000000 0.000000 -0.000000 -0.000000 6.047400 -1.104201 5.116212 0.000000 17.676125 -0.000000 -14.092209 5.390209 18.054177 -0.000000 -7.110851 -0.000000 -0.000000 0.000000 -0.000000 -5.138995 6.748251 -0.036179 0.000000 7.284834 -0.000000 0.000000 -0.000000 0.000000 2.933312 0.000000 9.855944 40.580180 -15.635537 -39.010077 -180.000037 -77.710195 -180.000037 -2.672423 14.522007 -57.456878 0.000000 0.000000 -0.000000 -1.865983 0.000000 -8.279091 -10.313178 -4.835151 28.152292 -0.000136 -41.832165 -0.000052 7.429444 1.908010 6.387059 -0.000000 -0.000000 0.000000 0.000000 -0.000000 0.000000 9.046531 7.262208 -36.070527 -0.000000 -0.000000 0.000000 
125.492500 86.460100 131.446100 -4.819435 -2.768277 -68.723627 -3.897568 -7.791274 -11.033631 -0.000000 38.418220 -0.000000 10.368801 -0.747365 -20.085717 -0.000000 -6.024363 -0.000000 -0.000000 0.000000 -0.000000 5.585593 0.495916 7.091986 -0.000000 14.899275 -0.000000 -13.210984 5.322812 18.430831 0.000000 -7.029236 0.000000 -0.000000 0.000000 -0.000000 -5.850239 6.342366 -1.828160 0.000000 6.656826 0.000000 -0.000000 -0.000000 0.000000 4.562381 0.000000 8.067113 41.086923 -18.882472 -37.488567 -180.000037 -75.327196 -180.000037 0.638174 10.567133 -49.988221 0.000000 -0.000000 -0.000000 0.072980 0.000000 -7.788145 -12.391771 -6.547038 28.436669 -0.000103 -34.102906 -0.000032 10.139187 4.572982 13.761836 -0.000000 0.000000 -0.000000 -0.000000 -0.000000 0.000000 10.480906 7.423825 -33.569176 0.000000 0.000000 -0.000000 
125.778000 86.499400 132.510000 -4.810269 -2.600595 -71.471335 -4.888052 -8.743863 -13.706035 -0.000000 38.084330 -0.000000 11.873592 -0.112969 -21.040283 -0.000000 -5.629988 0.000000 -0.000000 0.000000 -0.000000 4.546748 2.740444 8.856204 0.000000 11.792526 0.000000 -12.396869 5.168567 19.390169 0.000000 -6.899478 -0.000000 -0.000000 0.000000 -0.000000 -6.640834 6.269022 -2.693286 0.000000 6.279237 0.000000 -0.000000 0.000000 0.000000 5.179680 -0.000000 6.388654 42.805542 -22.332857 -35.208893 -180.000037 -73.399955 -180.000037 0.975321 8.487689 -41.807140 0.000000 0.000000 -0.000000 1.387538 -0.000000 -7.791140 -13.660294 -7.013328 24.946863 -0.000082 -28.335782 -0.000021 7.866442 6.811588 20.593983 0.000000 0.000000 -0.000000 -0.000000 0.000000 0.000000 11.536815 6.948043 -31.377150 -0.000000 0.000000 -0.000000 
125.887800 86.530400 133.530400 -5.255432 -2.366994 -75.116567 -5.870961 -9.889236 -15.163135 0.000000 39.516826 -0.000000 12.834269 1.013113 -20.832185 -0.000000 -5.848522 -0.000000 -0.000000 0.000000 -0.000000 3.471534 5.860734 10.592587 -0.000000 8.143619 -0.000000 -12.100806 5.149414 21.047321 0.000000 -7.243604 -0.000000 -0.000000 0.000000 0.000000 -6.997079 6.414157 -2.868778 0.000000 6.132052 0.000000 -0.000000 -0.000000 0.000000 5.210105 0.000000 5.468619 44.509062 -25.456844 -33.266349 -180.000037 -72.365974 -180.000037 -0.391831 7.524046 -36.540916 0.000000 -0.000000 -0.000000 1.959113 0.000000 -7.999597 -14.469584 -6.705943 19.197002 -0.000068 -24.241846 -0.000015 1.829741 6.952417 19.503872 0.000000 0.000000 -0.000000 -0.000000 -0.000000 0.000000 12.062045 6.354410 -28.860740 -0.000000 0.000000 -0.000000 
126.014600 86.548500 134.371900 -5.008169 -1.622178 -78.791527 -6.412561 -12.147909 -15.792512 0.000000 41.351155 -0.000000 14.196786 1.968766 -19.526429 0.000000 -5.131777 0.000000 -0.000000 0.000000 -0.000000 2.734812 7.426063 12.232820 -0.000000 5.739803 -0.000000 -11.597969 4.851679 23.032736 -0.000000 -7.336764 -0.000000 -0.000000 0.000000 -0.000000 -6.835502 5.851352 -3.737351 -0.000000 5.843176 -0.000000 0.000000 -0.000000 -0.000000 5.884358 0.000000 5.756068 43.621721 -27.774570 -33.186172 -180.000037 -72.230415 -180.000037 -1.657267 8.126154 -36.603236 -0.000000 0.000000 0.000000 2.131047 -0.000000 -8.075258 -15.360137 -5.757707 13.177417 -0.000062 -22.240762 -0.000012 -3.482292 5.794913 11.088010 -0.000000 0.000000 -0.000000 0.000000 -0.000000 -0.000000 12.299245 6.099652 -25.794468 -0.000000 -0.000000 -0.000000 
126.180300 86.650600 134.912000 -4.048800 -0.634409 -81.279669 -6.626478 -14.698244 -16.933148 0.000000 42.475056 -0.000000 15.388065 2.570109 -17.177869 -0.000000 -5.154734 -0.000000 -0.000000 0.000000 -0.000000 2.720714 6.851656 13.699877 0.000000 5.480454 -0.000000 -11.211951 4.404125 24.095582 0.000000 -7.349402 0.000000 -0.000000 -0.000000 0.000000 -6.495038 4.994399 -5.647611 -0.000000 5.282832 -0.000000 0.000000 0.000000 -0.000000 7.848488 0.000000 7.158148 38.032487 -31.060670 -36.979669 180.000037 -73.982809 -180.000037 -1.353069 11.656668 -40.179394 -0.000000 -0.000000 0.000000 2.803900 -0.000000 -8.214236 -17.022025 -4.130942 8.561345 -0.000063 -22.409338 -0.000012 -5.183150 5.166816 1.091945 0.000000 0.000000 -0.000000 0.000000 0.000000 -0.000000 13.053798 6.018202 -23.163920 0.000000 -0.000000 -0.000000 
126.231300 86.876400 135.259700 -3.657323 0.432830 -82.674045 -6.529714 -16.001987 -18.831250 0.000000 42.471279 -0.000000 15.644742 2.493667 -16.478144 -0.000000 -5.768123 -0.000000 -0.000000 -0.000000 -0.000000 3.289679 6.421291 14.642440 0.000000 5.743922 0.000000 -10.930692 4.213184 24.658172 -0.000000 -7.215862 0.000000 -0.000000 -0.000000 0.000000 -5.713175 4.772470 -7.101717 -0.000000 5.156917 0.000000 -0.000000 -0.000000 -0.000000 9.742594 -0.000000 7.524283 28.753253 -35.789887 -43.555972 -180.000037 -76.752868 -180.000037 -3.335862 18.413382 -46.463890 0.000000 0.000000 -0.000000 3.618662 0.000000 -8.241272 -19.004307 -1.503932 4.674458 -0.000069 -24.484664 -0.000015 -4.146974 4.557538 -4.648928 -0.000000 -0.000000 0.000000 -0.000000 -0.000000 -0.000000 13.945404 5.484877 -21.866209 -0.000000 -0.000000 -0.000000 
